# xmcd
#
# Track frame offsets:
#	150
#	14910
#	34858
#	49439
#	74333
#	85037
#	99724
#	114822
#	132613
#	145718
#	161945
#	179252
#	188774
#	201350
#
# Disc length: 2904 seconds
#
# Revision: 1
# Processed by: cddbd v1.5.1PL0 Copyright (c) Steve Scherf et al.
# Submitted via: audiograbber 1.83.01
#
DISCID=d00b560e
DTITLE=Thorncreek Village Ramblers - My Tennessee Home
DYEAR=1900
DGENRE=
TTITLE0=3rd Rate Romance
TTITLE1=Tennessee Mountain Home
TTITLE2=Roll in my sweet Babys Arms
TTITLE3=Travelling Soldier
TTITLE4=You gonna miss Me
TTITLE5=Way Downtown
TTITLE6=Rider in the Rain
TTITLE7=Banks of the Ohio
TTITLE8=Rocky Top
TTITLE9=The Rose
TTITLE10=Bring on the Rain
TTITLE11=Loving You
TTITLE12=Blue Grass White Snow
TTITLE13=Amazing Grace
EXTD=
EXTT0=
EXTT1=
EXTT2=
EXTT3=
EXTT4=
EXTT5=
EXTT6=
EXTT7=
EXTT8=
EXTT9=
EXTT10=
EXTT11=
EXTT12=
EXTT13=Featuring the Thorncreek Gospel Kings
PLAYORDER=
